<svg id="Layer_1" xmlns:rdf="http://www.w3.org/1999/02/22-rdf-syntax-ns#" xmlns="http://www.w3.org/2000/svg" enable-background="new 0 0 422.5 94.5" xml:space="preserve" height="94.5px" viewBox="0 0 422.5 94.5" width="422.5px" version="1.1" y="0px" x="0px" xmlns:cc="http://creativecommons.org/ns#" xmlns:dc="http://purl.org/dc/elements/1.1/"><g id="g3039" fill="#AD1A1E"><path id="path3041" d="M16.577,5.756l-15.198,84.125,21.374,0.891,1.721-14.184,16.804-3.504,5.522,15.668,21.55-2.732-33.128-80.918-18.645,0.654zm10.036,52.545l2.732-22.025,7.005,20.066-9.737,1.959z"/><path id="path3043" d="M310.35,75.4c-5.227,0-9.045-0.672-11.459-2.02-3.168-1.779-5.426-5.123-6.77-10.033,14.842-6.412,22.266-15.021,22.266-25.826,0-11.283-8.234-19.87-24.699-25.77-10.727-3.876-23.199-6.214-37.407-7.006l-3.19,70.286c-0.76,0.089-1.464,0.164-2.096,0.22-1.106,0.1-2.018,0.148-2.729,0.148-5.226,0-9.044-0.672-11.459-2.02-3.168-1.779-5.425-5.123-6.769-10.033,14.843-6.412,22.265-15.021,22.265-25.826,0-11.283-8.233-19.87-24.698-25.77-10.728-3.876-23.197-6.214-37.405-7.006l-3.061,67.42-27.46-67.062-18.642,0.654-11.644,64.452-28.254-23.663,24.697-41.856-20.72-2.139-19,32.534-2.729-29.92-17.691,2.969,7.778,83.766,17.635-2.018-2.552-29.801,27.666,27.486,11.551-8.377-1.932,10.691,21.374,0.891,1.722-14.184,16.801-3.504,5.521,15.668,15.213-1.929-0.133,2.938,19.058,0.295,0.831-19.525,4.216-0.832c2.021,6.375,4.394,10.998,7.125,13.889,5.303,5.738,16.843,9.043,34.615,9.912l0.545-3.733,18.75,0.29,0.83-19.525,4.216-0.832c2.02,6.375,4.395,10.998,7.127,13.889,5.305,5.738,16.842,9.043,34.615,9.912l2.72-18.695c-1.504,0.199-2.809,0.348-3.918,0.447-1.1,0.1-2.02,0.148-2.73,0.148zm-163.27-17.099l2.731-22.025,7.006,20.066-9.74,1.959zm53.61-7.541l1.01-27.131c14.922,0.949,22.384,5.363,22.384,13.238,0,7.719-7.8,12.352-23.39,13.893zm66.08,0l1.01-27.131c14.925,0.949,22.386,5.363,22.386,13.238,0,7.719-7.8,12.352-23.4,13.893z"/><path id="path3045" d="M383.8,1.303l-19.832,3.799c2.414,12.55,3.623,24.285,3.623,35.209,0,18.879-4.393,28.322-13.182,28.322-11.004,0-16.506-16.805-16.506-50.408,0-1.662,0.031-3.385,0.092-5.164,0.057-1.783,0.127-3.662,0.207-5.643l-22.086,1.9c0.908,18.684,3.76,35.229,8.549,49.633,6.926,20.818,16.82,31.225,29.688,31.225,4.629,0,8.984-1.148,13.059-3.443,12.627-7.359,18.939-25.363,18.939-54.021,0-5.064-0.205-10.201-0.623-15.406-0.42-5.206-1.06-10.54-1.93-16.003z"/><polygon id="polygon3047" points="416.86,5.576,397.09,5.875,396.68,65.662,410.09,64.535"/><polygon id="polygon3049" points="393.77,88.453,412.23,90.711,413.12,70.117,394.66,68.689"/></g></svg>

